HIERARCHY
ROOT Hips
{
	OFFSET 0.00000 0.00000 0.00000
	CHANNELS 6 Xposition Yposition Zposition Yrotation Zrotation Xrotation 
	JOINT Lumbar
	{
		OFFSET 0 0 0
		CHANNELS 3 Zrotation Xrotation Yrotation
		JOINT Neck
		{
			OFFSET 0.00 0.2701 0.00
			CHANNELS 3 Zrotation Xrotation Yrotation
			End Site
			{
				OFFSET 0.00 0.1379 0.00
			}
		}
		JOINT RightShoulder
		{
			OFFSET 0.0119 0.2289 0.1181
			CHANNELS 3 Zrotation Xrotation Yrotation
			JOINT RightElbow
			{
				OFFSET 0.00 -0.1475 0.00
				CHANNELS 2 Zrotation Yrotation
				JOINT RightWrist
				{
					OFFSET 0.00 -0.1605 0.00
					CHANNELS 2 Zrotation Xrotation
					End Site
					{
						OFFSET 0.0040 -0.1068 0.0006
					}
				}
			}
		}
		JOINT LeftShoulder
		{
			OFFSET 0.0119 0.2289 -0.1181
			CHANNELS 3 Zrotation Xrotation Yrotation
			JOINT LeftElbow
			{
				OFFSET 0.00 -0.1475 0.00
				CHANNELS 2 Zrotation Yrotation
				JOINT LeftWrist
				{
					OFFSET 0.00 -0.1605 0.00
					CHANNELS 2 Zrotation Xrotation
					End Site
					{
						OFFSET 0.0040 -0.1068 -0.0006
					}
				}
			}
		}
	}
	JOINT RightHip
	{
		OFFSET 0.0316 -0.0424 0.0458
		CHANNELS 3 Zrotation Xrotation Yrotation
		JOINT RightKnee
		{
			OFFSET 0.00 -0.2438 0.00
			CHANNELS 1 Zrotation
			JOINT RightAnkle
			{
				OFFSET 0.00 -0.2449 0.00
				CHANNELS 3 Zrotation Xrotation Yrotation
				End Site
				{
					OFFSET 0.1237 -0.0542 0.0051
				}
			}
		}
	}
	JOINT LeftHip
	{
		OFFSET 0.0316 -0.0424 -0.0458
		CHANNELS 3 Zrotation Xrotation Yrotation
		JOINT LeftKnee
		{
			OFFSET 0.00 -0.2438 0.00
			CHANNELS 1 Zrotation
			JOINT LeftAnkle
			{
				OFFSET 0.00 -0.2449 0.00
				CHANNELS 3 Zrotation Xrotation Yrotation
				End Site
				{
					OFFSET 0.1237 -0.0542 -0.0051
				}
			}
		}
	}
}
MOTION
Frames: 14
Frame Time: 0.02
0.00017 -9e-05 -0.00037 51.11876 -20.0175 -8.27561 43.99133 -1.92775 -8.81588 -12.37328 6.9009 -0.40493 -19.68827 -2.82852 -17.63011 22.96871 145.06201 21.57261 8.93932 -23.74128 8.43129 -4.58074 30.56266 -109.97464 18.91847 -1.4043 26.39455 -1.62286 0.26722 -20.20425 -6.86316 -5.06224 -3.37875 31.06935 3.7706 -1.18185 -24.34086 -6.51817 4.00612 2.75396
0.00026 -4e-05 -0.00029 51.20013 -20.07847 -8.2755 43.98728 -1.95341 -8.81855 -12.39185 6.87464 -0.40518 -19.93439 -3.01915 -16.74499 23.48819 143.17583 21.1907 8.56238 -23.71967 8.406 -4.48569 30.53276 -109.8983 18.78486 -1.40664 26.43902 -1.69366 -0.20484 -20.19687 -6.8391 -5.04197 -3.35989 31.15027 3.82934 -0.95012 -24.3401 -6.50944 3.97035 2.73074
0.00035 1e-05 -0.00021 51.28133 -20.1393 -8.27537 43.98325 -1.97901 -8.8213 -12.41047 6.84838 -0.40542 -20.18025 -3.20944 -15.8619 24.00725 141.29501 20.80984 8.18652 -23.69824 8.38071 -4.39068 30.50296 -109.82225 18.65158 -1.40901 26.48339 -1.76433 -0.67597 -20.18952 -6.81507 -5.02171 -3.34105 31.23099 3.88794 -0.71896 -24.33934 -6.50072 3.93465 2.70756
0.00043 5e-05 -0.00012 51.36245 -20.20009 -8.27526 43.97921 -2.00458 -8.82395 -12.42898 6.8222 -0.40566 -20.42563 -3.39949 -14.97944 24.52513 139.41485 20.42917 7.81077 -23.67669 8.35551 -4.29592 30.47314 -109.74596 18.51833 -1.41132 26.52774 -1.83492 -1.14668 -20.18216 -6.79108 -5.00149 -3.32224 31.31166 3.94651 -0.48792 -24.33858 -6.49201 3.89899 2.6844
0.00052 0.0001 -4e-05 51.44373 -20.26101 -8.27517 43.97516 -2.0302 -8.82657 -12.44744 6.79601 -0.4059 -20.67128 -3.58991 -14.09506 25.04349 137.52872 20.04725 7.43384 -23.65498 8.3303 -4.20109 30.44325 -109.66991 18.38488 -1.41368 26.57219 -1.90561 -1.61808 -20.17477 -6.76708 -4.98131 -3.30341 31.39252 4.00521 -0.25638 -24.33781 -6.48329 3.86327 2.6612
0.00061 0.00015 4e-05 51.52475 -20.32165 -8.27497 43.97119 -2.05578 -8.82962 -12.4664 6.76958 -0.40614 -20.91763 -3.77996 -13.21468 25.56427 135.65872 19.66848 7.06022 -23.63415 8.30483 -4.10567 30.41368 -109.59418 18.25204 -1.41612 26.61638 -1.97623 -2.08858 -20.1675 -6.74298 -4.96089 -3.28455 31.47297 4.0636 -0.02602 -24.33707 -6.47461 3.82763 2.63809
0.00069 0.00019 0.00012 51.60615 -20.38277 -8.275 43.96701 -2.08138 -8.83163 -12.48423 6.74376 -0.40638 -21.16183 -3.97023 -12.32763 26.07825 133.7605 19.28449 6.68066 -23.61143 8.28 -4.01184 30.38337 -109.51644 18.11783 -1.41814 26.66104 -2.04691 -2.56049 -20.16 -6.71909 -4.94093 -3.26576 31.55412 4.12255 0.20645 -24.33628 -6.46584 3.79188 2.61482
0.00078 0.00024 0.00021 51.68731 -20.4435 -8.27479 43.96314 -2.10703 -8.83489 -12.50333 6.71722 -0.40662 -21.40886 -4.16088 -11.44597 26.60097 131.88435 18.90404 6.30603 -23.59071 8.2544 -3.91598 30.35399 -109.44317 17.98539 -1.42101 26.70528 -2.11752 -3.03086 -20.1527 -6.69505 -4.9206 -3.24694 31.63467 4.18097 0.43702 -24.33553 -6.45716 3.7562 2.59168
0.00087 0.00029 0.00029 51.76778 -20.50358 -8.27441 43.95918 -2.13245 -8.83856 -12.52308 6.69038 -0.40686 -21.65621 -4.3498 -10.57341 27.12504 130.04997 18.53278 5.9394 -23.57143 8.22859 -3.81981 30.32476 -109.36497 17.85306 -1.42311 26.74898 -2.18816 -3.50059 -20.14567 -6.67066 -4.89962 -3.22796 31.71436 4.23881 0.66519 -24.33486 -6.44858 3.72069 2.56875
0.00096 0.00034 0.00037 51.85104 -20.56686 -8.27539 43.95434 -2.15833 -8.8365 -12.53636 6.667 -0.40709 -21.89227 -4.54211 -9.656 27.6133 128.01969 18.12326 5.53269 -23.54087 8.20619 -3.73192 30.29168 -109.28392 17.71392 -1.42418 26.79569 -2.25897 -3.97778 -20.13717 -6.64777 -4.88178 -3.20952 31.7986 4.30021 0.90694 -24.33381 -6.43937 3.68447 2.5448
0.00104 0.00038 0.00046 51.92916 -20.62372 -8.27325 43.95222 -2.1838 -8.84869 -12.56504 6.63526 -0.40736 -22.15815 -4.73141 -8.8286 28.19486 126.37453 17.78518 5.20677 -23.53602 8.17519 -3.62246 30.26864 -109.22883 17.59311 -1.43091 26.83611 -2.32918 -4.43673 -20.13174 -6.62203 -4.85768 -3.19016 31.8735 4.35396 1.12017 -24.33351 -6.43153 3.64957 2.52288
0.00109 0.00039 0.00057 51.9871 -20.65994 -8.2645 43.9505 -2.20369 -8.88263 -12.62199 6.5891 -0.40775 -22.4566 -4.87836 -8.28961 28.88954 126.03688 17.72439 5.13669 -23.58662 8.13236 -3.48875 30.25746 -109.0686 17.48668 -1.42276 26.85849 -2.39974 -4.8662 -20.13507 -6.58584 -4.81337 -3.1666 31.92025 4.3875 1.25322 -24.3357 -6.42718 3.61993 2.50743
0.00114 0.00039 0.00069 52.04104 -20.69017 -8.25228 43.9527 -2.22402 -8.93416 -12.69698 6.53301 -0.4082 -22.79341 -5.02852 -7.83447 29.70411 126.04618 17.72261 5.14227 -23.66577 8.07914 -3.32827 30.25901 -108.95785 17.40268 -1.42449 26.87461 -2.46928 -5.27359 -20.14141 -6.54726 -4.76333 -3.14242 31.95799 4.41318 1.35777 -24.33857 -6.42427 3.59134 2.49387
0.00118 0.0004 0.0008 52.10075 -20.72528 -8.24039 43.95785 -2.24699 -8.98892 -12.77284 6.47588 -0.40863 -23.14578 -5.19955 -7.31244 30.55756 125.72437 17.63776 5.08982 -23.74181 8.02246 -3.15552 30.26534 -108.95151 17.33519 -1.44336 26.89423 -2.538 -5.67765 -20.14613 -6.51148 -4.71793 -3.1196 32.0016 4.44196 1.47695 -24.34085 -6.42086 3.56113 2.47883
